<svg width="512" height="512" viewBox="0 0 512 512" fill="none" xmlns="http://www.w3.org/2000/svg">
<path d="M459 44.0254C469.581 44.5464 478 53.2896 478 64V448L477.993 448.517C477.724 459.152 469.152 467.724 458.517 467.993L458 468H55L54.4834 467.993C43.8481 467.724 35.2765 459.152 35.0068 448.517L35 448V64C35 53.127 43.6765 44.2808 54.4834 44.0068L55 44H459V44.0254ZM55 448H458V122H55V448ZM328 63C322.477 63 318 67.4772 318 73V93C318 98.5228 322.477 103 328 103H348C353.523 103 358 98.5228 358 93V73C358 67.4772 353.523 63 348 63H328ZM378 63C372.477 63 368 67.4772 368 73V93C368 98.5228 372.477 103 378 103H398C403.523 103 408 98.5228 408 93V73C408 67.4772 403.523 63 398 63H378ZM428 63C422.477 63 418 67.4772 418 73V93C418 98.5228 422.477 103 428 103H448C453.523 103 458 98.5228 458 93V73C458 67.4772 453.523 63 448 63H428Z" fill="currentColor"/>
<path d="M170.503 249.345C175.58 254.421 183.811 254.421 188.888 249.345L199.278 238.954C199.616 238.579 199.965 238.211 200.326 237.851C200.687 237.49 201.055 237.14 201.43 236.802L211.887 226.346C216.963 221.269 216.963 213.038 211.887 207.961L167.988 164.062C190.971 156.45 217.303 161.788 235.59 180.074C253.889 198.374 259.219 224.729 251.583 247.724L364.785 360.926C376.213 372.354 376.213 390.882 364.785 402.31C353.358 413.737 334.83 413.736 323.402 402.309L210.436 289.342C187.275 297.328 160.563 292.078 142.074 273.59C123.573 255.088 118.327 228.351 126.337 205.179L170.503 249.345Z" fill="currentColor"/>
</svg>
